<svg id="female_black_24dp" xmlns="http://www.w3.org/2000/svg" width="54" height="54" viewBox="0 0 54 54">
  <rect id="사각형_7901" data-name="사각형 7901" width="54" height="54" fill="none"/>
  <path id="패스_6625" data-name="패스 6625" d="M33.794,17c0-7.185-6.1-13-13.647-13S6.5,9.814,6.5,17A13.164,13.164,0,0,0,17.666,29.763v4.964H12.7v4.727h4.962v4.727h4.962V39.454H27.59V34.727H22.628V29.763A13.164,13.164,0,0,0,33.794,17ZM11.462,17a8.5,8.5,0,0,1,8.684-8.273A8.5,8.5,0,0,1,28.831,17a8.5,8.5,0,0,1-8.684,8.273A8.5,8.5,0,0,1,11.462,17Z" transform="translate(6.669 1.925)" fill="#775dff"/>
</svg>
