<svg xmlns="http://www.w3.org/2000/svg" width="45" height="46" viewBox="0 0 45 46">
  <g id="transgender_black_24dp" transform="translate(-0.816 -0.324)">
    <rect id="사각형_7903" data-name="사각형 7903" width="45" height="46" transform="translate(0.816 0.324)" fill="none"/>
    <path id="패스_6627" data-name="패스 6627" d="M21.756,14.5A6.752,6.752,0,1,1,15,21.256,6.759,6.759,0,0,1,21.756,14.5Zm8.739.733L38.153,7.6v4.977h3.858V1H30.436V4.858h4.977l-7.659,7.659a10.553,10.553,0,0,0-12,0L14.5,11.263l2.72-2.72L14.5,5.8l-2.739,2.72L8.1,4.858h4.977V1H1.5V12.575H5.358V7.6l3.685,3.665L6.3,14l2.72,2.72L11.743,14,13,15.256a10.622,10.622,0,0,0,6.829,16.436v4.032H15.968v3.858h3.858V43.44h3.858V39.582h3.858V35.724H23.685V31.692a10.614,10.614,0,0,0,6.81-16.455Z" transform="translate(1.56 0.929)" fill="#e86767"/>
  </g>
</svg>
